<svg width="512" height="512" viewBox="0 0 512 512" fill="none" xmlns="http://www.w3.org/2000/svg">
<defs>
  <linearGradient id="bg" x1="96" y1="64" x2="416" y2="448" gradientUnits="userSpaceOnUse">
    <stop stop-color="#C084FC"/>
    <stop offset="1" stop-color="#2DD4BF"/>
  </linearGradient>
  <linearGradient id="hair" x1="150" y1="96" x2="364" y2="288" gradientUnits="userSpaceOnUse">
    <stop stop-color="#4338CA"/>
    <stop offset="1" stop-color="#0F766E"/>
  </linearGradient>
</defs>
<circle cx="256" cy="256" r="248" fill="url(#bg)"/>
<circle cx="256" cy="256" r="220" fill="#F8FAFC" fill-opacity="0.18"/>
<path d="M156 398C176 334 220 306 256 306C292 306 336 334 356 398" fill="#E9D5FF"/>
<path d="M146 228C146 146 194 104 256 104C318 104 366 146 366 228V248H146V228Z" fill="url(#hair)"/>
<path d="M184 238C184 164 217 130 256 130C295 130 328 164 328 238V282C328 339 295 378 256 378C217 378 184 339 184 282V238Z" fill="#F8D9C8"/>
<circle cx="220" cy="255" r="10" fill="#1E293B"/>
<circle cx="292" cy="255" r="10" fill="#1E293B"/>
<path d="M226 317C243 330 269 330 286 317" stroke="#7C3AED" stroke-width="10" stroke-linecap="round"/>
<path d="M212 223C224 216 238 216 248 221" stroke="#334155" stroke-width="8" stroke-linecap="round"/>
<path d="M264 221C274 216 288 216 300 223" stroke="#334155" stroke-width="8" stroke-linecap="round"/>
<circle cx="352" cy="118" r="26" fill="#E9D5FF" fill-opacity="0.8"/>
<circle cx="352" cy="118" r="12" fill="#F8FAFC"/>
</svg>
